<svg width="16" height="18" viewBox="0 0 16 18" fill="none" xmlns="http://www.w3.org/2000/svg">
<path d="M5.19532 13.1667V14C5.19532 14.663 5.45871 15.2989 5.92756 15.7678C6.3964 16.2366 7.03228 16.5 7.69532 16.5C8.35836 16.5 8.99425 16.2366 9.46309 15.7678C9.93193 15.2989 10.1953 14.663 10.1953 14V13.1667M6.02866 3.16667C6.02866 2.72464 6.20425 2.30072 6.51681 1.98816C6.82937 1.67559 7.2533 1.5 7.69532 1.5C8.13735 1.5 8.56127 1.67559 8.87383 1.98816C9.18639 2.30072 9.36199 2.72464 9.36199 3.16667C10.319 3.61919 11.1348 4.32361 11.722 5.20442C12.3092 6.08523 12.6457 7.10923 12.6953 8.16667V10.6667C12.758 11.1848 12.9415 11.6809 13.231 12.1151C13.5205 12.5493 13.9079 12.9095 14.362 13.1667H1.02866C1.48277 12.9095 1.87016 12.5493 2.15965 12.1151C2.44913 11.6809 2.63261 11.1848 2.69532 10.6667V8.16667C2.74496 7.10923 3.08141 6.08523 3.66861 5.20442C4.25582 4.32361 5.07165 3.61919 6.02866 3.16667Z" stroke="#6290CB" stroke-width="1.5" stroke-linecap="round" stroke-linejoin="round"/>
</svg>
