<svg width="24" height="24" viewBox="0 0 24 24" fill="none" xmlns="http://www.w3.org/2000/svg">
<path d="M2.99438 21H20.9606M18.9644 21V17M18.9644 17C19.4938 17 20.0016 16.7893 20.3759 16.4142C20.7503 16.0391 20.9606 15.5304 20.9606 15V13C20.9606 12.4696 20.7503 11.9609 20.3759 11.5858C20.0016 11.2107 19.4938 11 18.9644 11C18.4349 11 17.9272 11.2107 17.5528 11.5858C17.1784 11.9609 16.9681 12.4696 16.9681 13V15C16.9681 15.5304 17.1784 16.0391 17.5528 16.4142C17.9272 16.7893 18.4349 17 18.9644 17ZM13.9737 21V7C13.9737 6.20435 13.6583 5.44129 13.0967 4.87868C12.5352 4.31607 11.7735 4 10.9794 4H6.98688C6.19272 4 5.43109 4.31607 4.86954 4.87868C4.30799 5.44129 3.99251 6.20435 3.99251 7V21M8.98313 17V21M7.985 13H9.98125M7.985 9H9.98125" stroke="#364152" stroke-width="1.5" stroke-linecap="round" stroke-linejoin="round"/>
</svg>
