<svg width="17" height="16" viewBox="0 0 17 16" fill="none" xmlns="http://www.w3.org/2000/svg">
<path d="M10.362 4.66927V3.0026C10.362 2.56058 10.1864 2.13665 9.87382 1.82409C9.56126 1.51153 9.13734 1.33594 8.69531 1.33594H2.86198C2.41995 1.33594 1.99603 1.51153 1.68347 1.82409C1.37091 2.13665 1.19531 2.56058 1.19531 3.0026V13.0026C1.19531 13.4446 1.37091 13.8686 1.68347 14.1811C1.99603 14.4937 2.41995 14.6693 2.86198 14.6693H8.69531C9.13734 14.6693 9.56126 14.4937 9.87382 14.1811C10.1864 13.8686 10.362 13.4446 10.362 13.0026V11.3359M6.19531 8.0026H16.1953M16.1953 8.0026L13.6953 5.5026M16.1953 8.0026L13.6953 10.5026" stroke="#6290CB" stroke-width="1.5" stroke-linecap="round" stroke-linejoin="round"/>
</svg>
