<svg width="16" height="20" viewBox="0 0 16 20" fill="none" xmlns="http://www.w3.org/2000/svg">
<path d="M9.97372 1.00006V5.00006C9.97372 5.26528 10.0789 5.51963 10.2661 5.70717C10.4532 5.8947 10.7071 6.00006 10.9718 6.00006H14.9643M9.97372 1.00006H2.98685C2.45741 1.00006 1.94966 1.21077 1.57529 1.58585C1.20092 1.96092 0.990601 2.46963 0.990601 3.00006V5.00006M9.97372 1.00006L14.9643 6.00006M14.9643 6.00006V8.00006M14.9643 17.0001C14.9643 17.5305 14.754 18.0392 14.3796 18.4143C14.0053 18.7893 13.4975 19.0001 12.9681 19.0001H2.98685C2.45741 19.0001 1.94966 18.7893 1.57529 18.4143C1.20092 18.0392 0.990601 17.5305 0.990601 17.0001M0.990601 14.0001H1.00058M0.990601 11.0001H1.00058M0.990601 8.00006H1.00058M14.9643 11.0001H14.9743M14.9643 14.0001H14.9743" stroke="#121926" stroke-width="1.5" stroke-linecap="round" stroke-linejoin="round"/>
</svg>
