<svg width="16" height="12" viewBox="0 0 16 12" fill="none" xmlns="http://www.w3.org/2000/svg">
<path d="M7.6953 6.00001V6.00834M10.0521 3.64334C10.677 4.26843 11.028 5.11613 11.028 6.00001C11.028 6.88389 10.677 7.73158 10.0521 8.35667M12.4097 1.28586C13.0288 1.90492 13.5198 2.63986 13.8549 3.44872C14.19 4.25758 14.3624 5.12452 14.3624 6.00002C14.3624 6.87553 14.19 7.74247 13.8549 8.55133C13.5198 9.36019 13.0288 10.0951 12.4097 10.7142M5.33548 8.35667C4.71058 7.73158 4.35953 6.88389 4.35953 6.00001C4.35953 5.11613 4.71058 4.26843 5.33548 3.64334M2.97609 10.7142C2.357 10.0951 1.8659 9.36019 1.53085 8.55133C1.1958 7.74247 1.02335 6.87553 1.02335 6.00002C1.02335 5.12452 1.1958 4.25758 1.53085 3.44872C1.8659 2.63986 2.357 1.90492 2.97609 1.28586" stroke="#6290CB" stroke-width="1.5" stroke-linecap="round" stroke-linejoin="round"/>
</svg>
