<svg width="9" height="11" viewBox="0 0 9 11" fill="none" xmlns="http://www.w3.org/2000/svg">
<path d="M6.84912 7.57422C6.84912 7.3418 6.81186 7.13672 6.73735 6.95898C6.66749 6.77669 6.54174 6.61263 6.36011 6.4668C6.18314 6.32096 5.9363 6.18197 5.61961 6.0498C5.30758 5.91764 4.91171 5.7832 4.43202 5.64648C3.92904 5.50065 3.47496 5.33887 3.06978 5.16113C2.6646 4.97884 2.31764 4.77148 2.02889 4.53906C1.74014 4.30664 1.51892 4.04004 1.36524 3.73926C1.21155 3.43848 1.1347 3.0944 1.1347 2.70703C1.1347 2.31966 1.2162 1.96191 1.37921 1.63379C1.54221 1.30566 1.77507 1.02083 2.07779 0.779297C2.38517 0.533203 2.75076 0.341797 3.17457 0.205078C3.59838 0.0683594 4.07108 0 4.59269 0C5.35648 0 6.00383 0.143555 6.53476 0.430664C7.07034 0.713216 7.47784 1.08464 7.75728 1.54492C8.03671 2.00065 8.17643 2.48828 8.17643 3.00781H6.83515C6.83515 2.63411 6.75365 2.30371 6.59064 2.0166C6.42764 1.72493 6.18081 1.49707 5.85014 1.33301C5.51948 1.16439 5.10033 1.08008 4.59269 1.08008C4.113 1.08008 3.71713 1.15072 3.4051 1.29199C3.09307 1.43327 2.86021 1.62467 2.70652 1.86621C2.55749 2.10775 2.48297 2.38346 2.48297 2.69336C2.48297 2.90299 2.52721 3.0944 2.6157 3.26758C2.70885 3.4362 2.85089 3.59342 3.04184 3.73926C3.23744 3.88509 3.48427 4.01953 3.78234 4.14258C4.08506 4.26562 4.44599 4.38411 4.86514 4.49805C5.44264 4.65755 5.94096 4.83529 6.36011 5.03125C6.77926 5.22721 7.1239 5.44824 7.39401 5.69434C7.66879 5.93587 7.87138 6.21159 8.00178 6.52148C8.13684 6.82682 8.20437 7.17318 8.20437 7.56055C8.20437 7.96615 8.12054 8.33301 7.95288 8.66113C7.78522 8.98926 7.54537 9.26953 7.23334 9.50195C6.92131 9.73438 6.5464 9.91439 6.10862 10.042C5.6755 10.165 5.19115 10.2266 4.65557 10.2266C4.18519 10.2266 3.72179 10.1628 3.26538 10.0352C2.81363 9.90755 2.40147 9.71615 2.02889 9.46094C1.66097 9.20573 1.36524 8.89128 1.14169 8.51758C0.922799 8.13932 0.813354 7.70182 0.813354 7.20508H2.15464C2.15464 7.54688 2.22217 7.84082 2.35722 8.08691C2.49228 8.32845 2.67624 8.52897 2.90911 8.68848C3.14662 8.84798 3.41442 8.96647 3.71248 9.04395C4.0152 9.11686 4.32956 9.15332 4.65557 9.15332C5.12595 9.15332 5.52414 9.08952 5.85014 8.96191C6.17615 8.83431 6.42298 8.65202 6.59064 8.41504C6.76296 8.17806 6.84912 7.89779 6.84912 7.57422Z" fill="#6290CB"/>
</svg>
