<svg width="26" height="27" viewBox="0 0 26 27" fill="none" xmlns="http://www.w3.org/2000/svg">
<g clip-path="url(#clip0_610_1370)">
<path d="M11.198 5.62532C11.6334 3.72906 14.1861 3.72906 14.6215 5.62532C14.6868 5.91019 14.8149 6.17474 14.9952 6.39743C15.1756 6.62012 15.4032 6.79467 15.6594 6.90686C15.9157 7.01905 16.1934 7.06571 16.4699 7.04305C16.7465 7.0204 17.0141 6.92906 17.2509 6.77647C18.8277 5.76138 20.6335 7.66844 19.6729 9.33577C19.5287 9.58593 19.4424 9.86851 19.421 10.1606C19.3996 10.4526 19.4437 10.7458 19.5498 11.0165C19.6558 11.2871 19.8208 11.5275 20.0313 11.718C20.2418 11.9086 20.4919 12.044 20.7612 12.1132C22.5557 12.5732 22.5557 15.2708 20.7612 15.7308C20.4917 15.7998 20.2413 15.9351 20.0306 16.1257C19.8198 16.3163 19.6546 16.5568 19.5485 16.8276C19.4423 17.0984 19.3981 17.3918 19.4196 17.6841C19.441 17.9763 19.5275 18.259 19.6719 18.5093C20.6325 20.1756 18.8277 22.0837 17.2499 21.0686C17.0132 20.9162 16.7457 20.825 16.4694 20.8024C16.193 20.7798 15.9155 20.8265 15.6594 20.9385C15.4033 21.0506 15.1758 21.2249 14.9955 21.4474C14.8151 21.6698 14.687 21.9341 14.6215 22.2187C14.1861 24.1149 11.6334 24.1149 11.198 22.2187C11.1327 21.9338 11.0047 21.6693 10.8243 21.4466C10.6439 21.2239 10.4164 21.0493 10.1601 20.9371C9.90384 20.825 9.62613 20.7783 9.34958 20.8009C9.07302 20.8236 8.80544 20.9149 8.56861 21.0675C6.99177 22.0826 5.18602 20.1756 6.14664 18.5082C6.29083 18.2581 6.37713 17.9755 6.39852 17.6834C6.41992 17.3914 6.3758 17.0982 6.26975 16.8275C6.1637 16.5569 5.99872 16.3165 5.78822 16.126C5.57771 15.9354 5.32763 15.8 5.05828 15.7308C3.26378 15.2708 3.26378 12.5732 5.05828 12.1132C5.32787 12.0442 5.57822 11.9089 5.78896 11.7183C5.9997 11.5277 6.16488 11.2872 6.27105 11.0164C6.37722 10.7456 6.42138 10.4522 6.39994 10.1599C6.3785 9.86771 6.29206 9.58495 6.14766 9.33469C5.18705 7.66844 6.99177 5.7603 8.56963 6.77539C9.59156 7.43195 10.916 6.85098 11.198 5.62532Z" stroke="#6290CB" stroke-width="1.5" stroke-linecap="round" stroke-linejoin="round"/>
<path d="M12.9097 17.159C14.6029 17.159 15.9755 15.7086 15.9755 13.9194C15.9755 12.1302 14.6029 10.6797 12.9097 10.6797C11.2165 10.6797 9.84393 12.1302 9.84393 13.9194C9.84393 15.7086 11.2165 17.159 12.9097 17.159Z" stroke="#6290CB" stroke-width="1.5" stroke-linecap="round" stroke-linejoin="round"/>
</g>
<defs>
<clipPath id="clip0_610_1370">
<rect width="24.5263" height="25.917" fill="white" transform="translate(0.646606 0.960938)"/>
</clipPath>
</defs>
</svg>
