<svg width="20" height="20" viewBox="0 0 20 20" fill="none" xmlns="http://www.w3.org/2000/svg">
<path d="M8.30564 2.31709C8.73084 0.561092 11.2242 0.561092 11.6494 2.31709C11.7132 2.58089 11.8382 2.82587 12.0144 3.03209C12.1905 3.23831 12.4128 3.39995 12.6631 3.50384C12.9134 3.60773 13.1846 3.65094 13.4547 3.62996C13.7249 3.60898 13.9862 3.52439 14.2175 3.38309C15.7576 2.44309 17.5213 4.20909 16.5831 5.75309C16.4422 5.98475 16.358 6.24643 16.3371 6.51686C16.3162 6.7873 16.3593 7.05886 16.4628 7.30947C16.5664 7.56008 16.7276 7.78267 16.9332 7.95914C17.1388 8.13562 17.383 8.261 17.6461 8.32509C19.3988 8.75109 19.3988 11.2491 17.6461 11.6751C17.3828 11.739 17.1383 11.8643 16.9324 12.0408C16.7266 12.2173 16.5653 12.44 16.4616 12.6907C16.3579 12.9415 16.3147 13.2133 16.3357 13.4839C16.3566 13.7545 16.441 14.0163 16.5821 14.2481C17.5203 15.7911 15.7576 17.5581 14.2165 16.6181C13.9853 16.477 13.7241 16.3925 13.4542 16.3716C13.1843 16.3507 12.9132 16.3938 12.6631 16.4976C12.4129 16.6014 12.1908 16.7628 12.0146 16.9688C11.8385 17.1748 11.7133 17.4195 11.6494 17.6831C11.2242 19.4391 8.73084 19.4391 8.30564 17.6831C8.24184 17.4193 8.11678 17.1743 7.94062 16.9681C7.76446 16.7619 7.54219 16.6002 7.2919 16.4963C7.0416 16.3925 6.77036 16.3492 6.50025 16.3702C6.23014 16.3912 5.96879 16.4758 5.73747 16.6171C4.19736 17.5571 2.43368 15.7911 3.37192 14.2471C3.51275 14.0154 3.59704 13.7538 3.61794 13.4833C3.63883 13.2129 3.59574 12.9413 3.49216 12.6907C3.38859 12.4401 3.22745 12.2175 3.02185 12.041C2.81625 11.8646 2.57198 11.7392 2.30891 11.6751C0.556208 11.2491 0.556208 8.75109 2.30891 8.32509C2.57222 8.26117 2.81674 8.13587 3.02257 7.95938C3.22841 7.78289 3.38974 7.5602 3.49343 7.30944C3.59713 7.05868 3.64026 6.78693 3.61932 6.51631C3.59838 6.24569 3.51395 5.98384 3.37291 5.75209C2.43468 4.20909 4.19736 2.44209 5.73847 3.38209C6.73659 3.99009 8.03016 3.45209 8.30564 2.31709Z" stroke="#121926" stroke-width="1.5" stroke-linecap="round" stroke-linejoin="round"/>
<path d="M6.98313 10.0001C6.98313 10.7957 7.29861 11.5588 7.86016 12.1214C8.42171 12.684 9.18334 13.0001 9.9775 13.0001C10.7717 13.0001 11.5333 12.684 12.0948 12.1214C12.6564 11.5588 12.9719 10.7957 12.9719 10.0001C12.9719 9.20444 12.6564 8.44138 12.0948 7.87877C11.5333 7.31616 10.7717 7.00009 9.9775 7.00009C9.18334 7.00009 8.42171 7.31616 7.86016 7.87877C7.29861 8.44138 6.98313 9.20444 6.98313 10.0001Z" stroke="#121926" stroke-width="1.5" stroke-linecap="round" stroke-linejoin="round"/>
</svg>
