<svg width="24" height="25" viewBox="0 0 24 25" fill="none" xmlns="http://www.w3.org/2000/svg">
<path d="M8 9.5H7C6.46957 9.5 5.96086 9.71071 5.58579 10.0858C5.21071 10.4609 5 10.9696 5 11.5V19.5C5 20.0304 5.21071 20.5391 5.58579 20.9142C5.96086 21.2893 6.46957 21.5 7 21.5H17C17.5304 21.5 18.0391 21.2893 18.4142 20.9142C18.7893 20.5391 19 20.0304 19 19.5V11.5C19 10.9696 18.7893 10.4609 18.4142 10.0858C18.0391 9.71071 17.5304 9.5 17 9.5H16M12 14.5V3.5M12 3.5L9 6.5M12 3.5L15 6.5" stroke="#FFC107" stroke-width="2" stroke-linecap="round" stroke-linejoin="round"/>
</svg>
