<svg width="24" height="25" viewBox="0 0 24 25" fill="none" xmlns="http://www.w3.org/2000/svg">
<path d="M8.69922 11.1969L15.2992 7.79688M8.69922 13.7969L15.2992 17.1969M3 12.5C3 13.2956 3.31607 14.0587 3.87868 14.6213C4.44129 15.1839 5.20435 15.5 6 15.5C6.79565 15.5 7.55871 15.1839 8.12132 14.6213C8.68393 14.0587 9 13.2956 9 12.5C9 11.7044 8.68393 10.9413 8.12132 10.3787C7.55871 9.81607 6.79565 9.5 6 9.5C5.20435 9.5 4.44129 9.81607 3.87868 10.3787C3.31607 10.9413 3 11.7044 3 12.5ZM15 6.5C15 7.29565 15.3161 8.05871 15.8787 8.62132C16.4413 9.18393 17.2044 9.5 18 9.5C18.7956 9.5 19.5587 9.18393 20.1213 8.62132C20.6839 8.05871 21 7.29565 21 6.5C21 5.70435 20.6839 4.94129 20.1213 4.37868C19.5587 3.81607 18.7956 3.5 18 3.5C17.2044 3.5 16.4413 3.81607 15.8787 4.37868C15.3161 4.94129 15 5.70435 15 6.5ZM15 18.5C15 19.2956 15.3161 20.0587 15.8787 20.6213C16.4413 21.1839 17.2044 21.5 18 21.5C18.7956 21.5 19.5587 21.1839 20.1213 20.6213C20.6839 20.0587 21 19.2956 21 18.5C21 17.7044 20.6839 16.9413 20.1213 16.3787C19.5587 15.8161 18.7956 15.5 18 15.5C17.2044 15.5 16.4413 15.8161 15.8787 16.3787C15.3161 16.9413 15 17.7044 15 18.5Z" stroke="#00C853" stroke-width="2" stroke-linecap="round" stroke-linejoin="round"/>
</svg>
