<svg width="16" height="16" viewBox="0 0 16 16" fill="none" xmlns="http://www.w3.org/2000/svg">
<path d="M1.02734 4.66927V3.0026C1.02734 2.56058 1.20294 2.13665 1.5155 1.82409C1.82806 1.51153 2.25198 1.33594 2.69401 1.33594H4.36068M1.02734 11.3359V13.0026C1.02734 13.4446 1.20294 13.8686 1.5155 14.1811C1.82806 14.4937 2.25198 14.6693 2.69401 14.6693H4.36068M11.0273 1.33594H12.694C13.136 1.33594 13.56 1.51153 13.8725 1.82409C14.1851 2.13665 14.3607 2.56058 14.3607 3.0026V4.66927M11.0273 14.6693H12.694C13.136 14.6693 13.56 14.4937 13.8725 14.1811C14.1851 13.8686 14.3607 13.4446 14.3607 13.0026V11.3359" stroke="#6290CB" stroke-width="1.5" stroke-linecap="round" stroke-linejoin="round"/>
</svg>
